<svg width="20" height="19" viewBox="0 0 20 19" fill="none" xmlns="http://www.w3.org/2000/svg">
<path d="M20 7.03704V7.74075C19.9984 8.93142 19.5435 10.0813 18.7191 10.9782C17.8947 11.875 16.7565 12.4582 15.5148 12.6201C16.0217 13.2362 16.2968 13.9958 16.2963 14.7778V18.2963C16.2963 18.4829 16.2183 18.6619 16.0793 18.7939C15.9404 18.9259 15.752 19 15.5556 19H9.62963C9.43317 19 9.24476 18.9259 9.10585 18.7939C8.96693 18.6619 8.88889 18.4829 8.88889 18.2963V16.8889H6.66667C5.68438 16.8889 4.74233 16.5182 4.04775 15.8583C3.35317 15.1985 2.96296 14.3035 2.96296 13.3704C2.96296 12.8105 2.72884 12.2735 2.31209 11.8776C1.89534 11.4817 1.33011 11.2593 0.740741 11.2593C0.544284 11.2593 0.355874 11.1851 0.216958 11.0532C0.0780421 10.9212 0 10.7422 0 10.5556C0 10.3689 0.0780421 10.1899 0.216958 10.058C0.355874 9.926 0.544284 9.85186 0.740741 9.85186C1.22712 9.85186 1.70873 9.94287 2.15809 10.1197C2.60744 10.2965 3.01573 10.5557 3.35965 10.8824C3.70358 11.2091 3.97639 11.597 4.16252 12.0239C4.34865 12.4508 4.44444 12.9083 4.44444 13.3704C4.44444 13.9303 4.67857 14.4672 5.09532 14.8632C5.51207 15.2591 6.0773 15.4815 6.66667 15.4815H8.88889V14.7778C8.88841 13.9958 9.16353 13.2362 9.67037 12.6201C8.42867 12.4582 7.29053 11.875 6.46613 10.9782C5.64173 10.0813 5.18674 8.93142 5.18518 7.74075V7.03704C5.19441 6.16249 5.43956 5.3048 5.89722 4.54593C5.67081 3.85208 5.59818 3.12118 5.68392 2.39933C5.76965 1.67749 6.0119 0.980342 6.39537 0.351863C6.4604 0.244864 6.55393 0.156015 6.66657 0.0942504C6.77921 0.0324862 6.90698 -1.62321e-05 7.03704 1.15155e-05C7.89983 -0.00170413 8.75108 0.188308 9.52278 0.554868C10.2945 0.921427 10.9653 1.45437 11.4815 2.11112H13.7037C14.2199 1.45437 14.8907 0.921427 15.6624 0.554868C16.4341 0.188308 17.2854 -0.00170413 18.1481 1.15155e-05C18.2782 -1.62321e-05 18.406 0.0324862 18.5186 0.0942504C18.6313 0.156015 18.7248 0.244864 18.7898 0.351863C19.1733 0.980328 19.4155 1.67751 19.5011 2.39939C19.5867 3.12127 19.5138 3.85217 19.287 4.54593C19.7456 5.30451 19.9911 6.16234 20 7.03704Z" fill="white"/>
</svg>
